# xmcd
#
# Track frame offsets:
#	150
#	10295
#	21814
#	32725
#	45548
#	55442
#	68436
#	80627
#	92665
#	106313
#	117540
#	128330
#	140262
#	152613
#	163289
#	179749
#	194720
#	208296
#	220980
#	234038
#	249976
#	263728
#	275433
#	287339
#	302384
#	316205
#	330196
#	342649
#
# Disc length: 4724 seconds
#
# Revision: 1
# Processed by: cddbd v1.5.2PL0 Copyright (c) Steve Scherf et al.
# Submitted via: EasyCDDAExtractor 8.2.3.1
#
DISCID=8c12721c
DTITLE=Brenda Lee - Little Miss Dynamite Vol3
DYEAR=1961
DGENRE=Crossover
TTITLE0=When My Dreamboat Comes Home
TTITLE1=Walkin' To New Orleans
TTITLE2=Hallelujah I Love Him So
TTITLE3=I'm In The Mood For Love
TTITLE4=Swanee River Rock
TTITLE5=Pretend
TTITLE6=If I Didn't Care
TTITLE7=If You Love Me (Really Love Me)
TTITLE8=Teach Me Tonight
TTITLE9=Blueberry Hill
TTITLE10=Around The World
TTITLE11=Fools Rush In (Were Angels Fear To Tread)
TTITLE12=Someone To Love (The Prisoner's Song)
TTITLE13=Zing! Went The Strings Of My Heart
TTITLE14=Georgia On My Mind
TTITLE15=Just Another Lie
TTITLE16=When I Fall In Love
TTITLE17=Cry
TTITLE18=Will You Love Me Tomorrow
TTITLE19=You Can Depend On Me
TTITLE20=Careless, That's All
TTITLE21=Lover, Come Back To Me
TTITLE22=Kansas City
TTITLE23=On The Sunny Side Of The Street
TTITLE24=All The Way
TTITLE25=How Deep Is The Ocean (How High Is The Sky)
TTITLE26=Tragedy
TTITLE27=Talkin' 'bout You
EXTD=
EXTT0=
EXTT1=
EXTT2=
EXTT3=
EXTT4=
EXTT5=
EXTT6=
EXTT7=
EXTT8=
EXTT9=
EXTT10=
EXTT11=
EXTT12=
EXTT13=
EXTT14=
EXTT15=
EXTT16=
EXTT17=
EXTT18=
EXTT19=
EXTT20=
EXTT21=
EXTT22=
EXTT23=
EXTT24=
EXTT25=
EXTT26=
EXTT27=
PLAYORDER=
